<svg width="25" height="25" viewBox="0 0 25 25" fill="none" xmlns="http://www.w3.org/2000/svg">
<path opacity="0.4" d="M10.5543 16.5573H3.84457C2.99537 16.5573 2.30603 17.2342 2.30603 18.0682C2.30603 18.9011 2.99537 19.5792 3.84457 19.5792H10.5543C11.4035 19.5792 12.0928 18.9011 12.0928 18.0682C12.0928 17.2342 11.4035 16.5573 10.5543 16.5573Z" fill="#1577BE"/>
<path opacity="0.4" d="M22.7142 6.78621C22.7142 5.95335 22.0249 5.27637 21.1768 5.27637H14.4671C13.6179 5.27637 12.9286 5.95335 12.9286 6.78621C12.9286 7.62018 13.6179 8.29716 14.4671 8.29716H21.1768C22.0249 8.29716 22.7142 7.62018 22.7142 6.78621Z" fill="#1577BE"/>
<path d="M9.32413 6.78622C9.32413 8.69022 7.75385 10.2335 5.81508 10.2335C3.87745 10.2335 2.30603 8.69022 2.30603 6.78622C2.30603 4.88333 3.87745 3.34009 5.81508 3.34009C7.75385 3.34009 9.32413 4.88333 9.32413 6.78622Z" fill="#1577BE"/>
<path d="M22.7141 18.0273C22.7141 19.9302 21.1439 21.4735 19.2051 21.4735C17.2675 21.4735 15.696 19.9302 15.696 18.0273C15.696 16.1233 17.2675 14.5801 19.2051 14.5801C21.1439 14.5801 22.7141 16.1233 22.7141 18.0273Z" fill="#1577BE"/>
</svg>
